<?xml version="1.0" encoding="UTF-8" standalone="no"?>
<svg
   viewbox="0 0 458 294"
   width="100"
   height="100"
   version="1.1"
   id="svg46"
   sodipodi:docname="GrassTop.svg"
   inkscape:version="1.3.2 (091e20e, 2023-11-25)"
   inkscape:export-filename="grass_top.png"
   inkscape:export-xdpi="96"
   inkscape:export-ydpi="96"
   xmlns:inkscape="http://www.inkscape.org/namespaces/inkscape"
   xmlns:sodipodi="http://sodipodi.sourceforge.net/DTD/sodipodi-0.dtd"
   xmlns="http://www.w3.org/2000/svg"
   xmlns:svg="http://www.w3.org/2000/svg">
  <sodipodi:namedview
     id="namedview46"
     pagecolor="#ffffff"
     bordercolor="#000000"
     borderopacity="0.25"
     inkscape:showpageshadow="2"
     inkscape:pageopacity="0.0"
     inkscape:pagecheckerboard="0"
     inkscape:deskcolor="#d1d1d1"
     inkscape:export-bgcolor="#54b42cff"
     inkscape:zoom="3.6424233"
     inkscape:cx="59.30118"
     inkscape:cy="62.870233"
     inkscape:window-width="1312"
     inkscape:window-height="449"
     inkscape:window-x="49"
     inkscape:window-y="480"
     inkscape:window-maximized="0"
     inkscape:current-layer="g18" />
  <defs
     id="defs1" />
  <g
     transform="translate(-1.6845383,2.6329289)"
     id="g46">
    <rect
       style="fill:#54b42c;fill-opacity:1;stroke-width:1.3029"
       id="rect46"
       width="100"
       height="100"
       x="1.6845382"
       y="-2.6329288" />
    <g
       transform="translate(2.09382,-4.0798175)"
       id="g18">
      <g
         id="g6">
        <path
           d="m 51.305775,61.893301 c 0,0 -2.760144,-15.813421 -2.760144,-15.813421 0,0 4.716637,4.849832 4.716637,4.849832 0,0 -0.378176,-6.41918 -0.378176,-6.41918 0,0 6.433286,6.093852 6.433286,6.093852 0,0 -2.084555,-14.39329 -2.084555,-14.39329 0,0 8.122688,10.858397 8.122688,10.858397 0,0 2.241166,-9.961927 2.241166,-9.961927 0,0 4.223976,15.372992 4.223976,15.372992 0,0 1.463833,-17.12657 1.463833,-17.12657 0,0 3.993068,9.804699 3.993068,9.804699 0,0 4.34792,-10.284459 4.34792,-10.284459 0,0 -0.589439,15.125774 -0.589439,15.125774 0,0 5.746846,-6.619921 5.746846,-6.619921 0,0 -0.172793,6.236113 -0.172793,6.236113 0,0 3.368292,-2.42264 3.368292,-2.42264 0,0 -1.505181,14.699749 -1.505181,14.699749 z"
           fill="#4e9c2f"
           id="path4" />
        <path
           d="m 87.67351,61.893301 c 0,0 -39.127879,0 -39.127879,0 0,0 -2.760144,-15.813421 -2.760144,-15.813421 0,0 4.716637,4.849832 4.716637,4.849832 l 0.749869,-3.057603 -0.381435,-4.195569 c 0,0 5.686677,6.927844 5.686677,6.927844 0,0 -2.478583,-15.210371 -2.478583,-15.210371 l 3.693169,7.554848 4.823546,4.12063 c 0,0 2.72081,-10.231089 2.72081,-10.231089 0,0 3.744333,15.642154 3.744333,15.642154 0,0 1.463832,-17.12657 1.463832,-17.12657 l 1.804398,6.520083 2.188671,3.284616 c 0,0 4.347919,-10.284459 4.347919,-10.284459 0,0 -0.589438,15.125774 -0.589438,15.125774 0,0 4.872839,-7.456431 4.872839,-7.456431 l -0.248629,4.405866 0.949842,2.666757 c 0,0 3.958545,-4.572195 3.958545,-4.572195 l -1.026114,8.250945 1.753066,0.180657 z"
           fill="#68b948"
           id="path5" />
        <path
           d="m 88.473199,61.893301 c 0,0 -39.127879,0 -39.127879,0 0,0 -2.760144,-15.813421 -2.760144,-15.813421 0,0 4.716637,4.849832 4.716637,4.849832 l 0.749869,-3.057603 -0.381435,-4.195569 c 0,0 5.686677,6.927844 5.686677,6.927844 0,0 -2.478583,-15.210371 -2.478583,-15.210371 l 3.693169,7.554848 4.823546,4.12063 c 0,0 2.72081,-10.231089 2.72081,-10.231089 0,0 3.744333,15.642154 3.744333,15.642154 0,0 1.463832,-17.12657 1.463832,-17.12657 l 1.804398,6.520083 2.18867,3.284616 c 0,0 4.34792,-10.284459 4.34792,-10.284459 0,0 -0.589438,15.125774 -0.589438,15.125774 0,0 4.872839,-7.456431 4.872839,-7.456431 l -0.248629,4.405866 0.949842,2.666757 c 0,0 3.958545,-4.572195 3.958545,-4.572195 l -1.026114,8.250945 1.753066,0.180657 z"
           fill="#54b42c"
           id="path6" />
      </g>
      <g
         id="g9">
        <path
           d="m 52.558533,35.563803 c 0,0 2.381575,-15.022348 2.381575,-15.022348 0,0 -4.716636,4.849831 -4.716636,4.849831 0,0 0.378175,-6.41918 0.378175,-6.41918 0,0 -6.433286,6.093852 -6.433286,6.093852 0,0 2.084555,-14.39329 2.084555,-14.39329 0,0 -8.122688,10.858398 -8.122688,10.858398 0,0 -3.064406,-9.886358 -3.064406,-9.886358 0,0 -3.400736,15.297423 -3.400736,15.297423 0,0 -1.463833,-17.126571 -1.463833,-17.126571 0,0 -3.993068,9.804699 -3.993068,9.804699 0,0 -4.347919,-10.284458 -4.347919,-10.284458 0,0 0.589438,15.125773 0.589438,15.125773 0,0 -5.097773,-7.552049 -5.097773,-7.552049 0,0 -0.47628,7.168242 -0.47628,7.168242 0,0 -4.017257,-4.49767 -4.017257,-4.49767 0,0 2.119503,16.340046 2.119503,16.340046 z"
           fill="#4e9c2f"
           id="path7" />
        <path
           d="m 10.963487,36.040224 c 0,0 40.718513,-0.386093 40.718513,-0.386093 0,0 2.760143,-15.81342 2.760143,-15.81342 0,0 -6.30727,5.235924 -6.30727,5.235924 l -0.749869,-3.057603 0.381435,-4.195569 c 0,0 -5.686677,6.927844 -5.686677,6.927844 0,0 2.478583,-15.210371 2.478583,-15.210371 l -4.146595,7.573772 -4.37012,4.101707 c 0,0 -1.755706,-7.61157 -1.755706,-7.61157 0,0 -3.942717,13.17957 -3.942717,13.17957 0,0 -2.230553,-17.283506 -2.230553,-17.283506 l -1.804397,6.520083 -2.188671,3.284616 c 0,0 -4.347919,-10.284459 -4.347919,-10.284459 0,0 0.474798,15.968144 0.474798,15.968144 0,0 -4.758199,-8.298801 -4.758199,-8.298801 l 0.248629,4.405866 -0.949842,2.666757 c 0,0 -3.958546,-4.572195 -3.958546,-4.572195 l 1.026115,8.250946 -1.753066,0.180656 z"
           fill="#69b949"
           id="path8" />
        <path
           d="m 11.243386,36.503117 c 0,0 41.708582,-0.462893 41.708582,-0.462893 0,0 2.366708,-16.289842 2.366708,-16.289842 0,0 -6.30727,5.235925 -6.30727,5.235925 l -0.749869,-3.057603 0.381435,-4.195569 c 0,0 -5.686677,6.927844 -5.686677,6.927844 0,0 2.478583,-15.210371 2.478583,-15.210371 l -4.146595,7.573772 -4.370121,4.101706 c 0,0 -1.755705,-7.611569 -1.755705,-7.611569 0,0 -3.942717,13.17957 -3.942717,13.17957 0,0 -2.230553,-17.283506 -2.230553,-17.283506 l -1.804397,6.520083 -2.188671,3.284616 c 0,0 -4.347919,-10.284459 -4.347919,-10.284459 0,0 0.474798,15.968144 0.474798,15.968144 0,0 -4.758199,-8.298801 -4.758199,-8.298801 l 0.248629,4.405866 -0.949843,2.666757 c 0,0 -3.958545,-4.572195 -3.958545,-4.572195 l 1.026115,8.250945 -1.753066,0.180657 z"
           fill="#54b42c"
           id="path9" />
      </g>
      <g
         transform="translate(-31.976756,32.546409)"
         id="g12">
        <path
           d="m 81.057954,63.709135 c 0,0 -36.332753,-7.832528 -36.332753,-7.832528 0,0 0.634304,-16.03996 0.634304,-16.03996 0,0 3.588679,5.734885 3.588679,5.734885 0,0 0.983072,-6.354719 0.983072,-6.354719 0,0 5.004617,7.312729 5.004617,7.312729 0,0 0.995447,-14.509351 0.995447,-14.509351 0,0 5.652017,12.326296 5.652017,12.326296 0,0 4.290177,-9.265916 4.290177,-9.265916 0,0 0.889469,15.917905 0.889469,15.917905 0,0 5.040151,-16.433475 5.040151,-16.433475 0,0 1.837189,10.425999 1.837189,10.425999 0,0 6.417587,-9.137235 6.417587,-9.137235 0,0 -3.763752,14.661877 -3.763752,14.661877 0,0 7.012847,-5.260188 7.012847,-5.260188 0,0 -1.483089,6.059655 -1.483089,6.059655 0,0 -0.705118,4.730618 -0.705118,4.730618 l 3.275194,-2.596588 z"
           fill="#4e9c2f"
           id="path10" />
        <path
           d="m 80.276224,63.540612 c 0,0 -38.249182,-8.245668 -38.249182,-8.245668 0,0 0.634304,-16.03996 0.634304,-16.03996 0,0 3.588679,5.734885 3.588679,5.734885 l 1.377377,-2.830913 0.51129,-4.181731 c 0,0 4.099022,7.970654 4.099022,7.970654 0,0 0.782458,-15.391118 0.782458,-15.391118 l 2.018149,8.163474 3.846857,5.044589 c 0,0 4.815772,-9.427955 4.815772,-9.427955 0,0 0.363875,16.079944 0.363875,16.079944 0,0 5.04015,-16.433475 5.04015,-16.433475 l 0.389858,6.753914 1.447331,3.672085 c 0,0 6.417587,-9.137235 6.417587,-9.137235 0,0 -3.763751,14.661877 -3.763751,14.661877 0,0 6.33475,-6.262097 6.33475,-6.262097 l -1.171522,4.254528 0.366529,2.807036 c 0,0 4.833176,-3.635308 4.833176,-3.635308 l -2.741845,7.849414 1.675626,0.546034 z"
           fill="#68b948"
           id="path11" />
        <path
           d="m 81.057954,63.709135 c 0,0 -38.249182,-8.245667 -38.249182,-8.245667 0,0 0.634304,-16.03996 0.634304,-16.03996 0,0 3.588679,5.734885 3.588679,5.734885 l 1.377378,-2.830914 0.51129,-4.181731 c 0,0 4.099022,7.970655 4.099022,7.970655 0,0 1.009801,-11.477905 1.009801,-11.477905 l 1.790806,4.25026 3.846857,5.04459 c 0,0 4.815771,-9.427955 4.815771,-9.427955 0,0 0.363875,16.079944 0.363875,16.079944 0,0 5.04015,-16.433475 5.04015,-16.433475 l 0.389858,6.753913 1.447331,3.672086 c 0,0 6.417588,-9.137235 6.417588,-9.137235 0,0 -3.763752,14.661877 -3.763752,14.661877 0,0 6.334751,-6.262098 6.334751,-6.262098 l -1.171522,4.254529 0.366529,2.807036 c 0,0 4.833175,-3.635308 4.833175,-3.635308 l -2.741845,7.849414 1.675626,0.546034 z"
           fill="#54b42c"
           id="path12" />
      </g>
      <path
         d=""
         fill="#fe00e9"
         stroke="#ff0808"
         stroke-width="5"
         id="path13" />
      <path
         d=""
         fill="#fe00e9"
         stroke="#ff0808"
         stroke-width="5"
         id="path14" />
      <path
         d=""
         fill="#fe00e9"
         stroke="#ff0808"
         stroke-width="5"
         id="path15" />
      <path
         d="m 0,49.888763 c 0,0 19.931819,12.443044 31.094035,2.350611 C 41.556556,42.779579 30.857995,33.832888 43,23 54.466086,12.770155 50,0 50,0"
         fill="none"
         stroke="#ffffff"
         stroke-opacity="0.033"
         stroke-width="10"
         stroke-linecap="square"
         id="path16"
         style="stroke:#ffffff;stroke-opacity:0.08" />
      <path
         d="m 50,100 c 0,0 -2.258796,-8.668676 9.555565,-17.989253 8.404588,-6.630542 23.143158,0.917142 28.009711,-7.194109 C 89.685095,71.283463 83.058763,57.799431 85.467808,52.847997 88.28983,47.047752 100,50 100,50"
         fill="none"
         stroke="#ffffff"
         stroke-opacity="0.033"
         stroke-width="10"
         stroke-linecap="square"
         id="path17"
         style="stroke:#ffffff;stroke-opacity:0.08" />
      <path
         d=""
         fill="#fe00e9"
         stroke="#ff0808"
         stroke-width="5"
         id="path18" />
    </g>
  </g>
</svg>
