<?xml version="1.0" encoding="UTF-8" standalone="no"?>
<svg
   viewbox="0 0 458 294"
   width="100"
   height="100"
   version="1.1"
   id="svg46"
   sodipodi:docname="TallGrass.svg"
   inkscape:export-filename="TallGrass.png"
   inkscape:export-xdpi="96"
   inkscape:export-ydpi="96"
   inkscape:version="1.3.2 (091e20e, 2023-11-25)"
   xmlns:inkscape="http://www.inkscape.org/namespaces/inkscape"
   xmlns:sodipodi="http://sodipodi.sourceforge.net/DTD/sodipodi-0.dtd"
   xmlns="http://www.w3.org/2000/svg"
   xmlns:svg="http://www.w3.org/2000/svg">
  <sodipodi:namedview
     id="namedview46"
     pagecolor="#ffffff"
     bordercolor="#000000"
     borderopacity="0.25"
     inkscape:showpageshadow="2"
     inkscape:pageopacity="0.0"
     inkscape:pagecheckerboard="0"
     inkscape:deskcolor="#d1d1d1"
     inkscape:zoom="4.1536728"
     inkscape:cx="44.900022"
     inkscape:cy="64.882337"
     inkscape:window-width="1512"
     inkscape:window-height="916"
     inkscape:window-x="0"
     inkscape:window-y="38"
     inkscape:window-maximized="1"
     inkscape:current-layer="svg46"
     inkscape:export-bgcolor="#ffffff00" />
  <defs
     id="defs1" />
  <g
     transform="translate(-1.6845383,2.6329289)"
     id="g46">
    <g
       id="g3"
       transform="translate(2.9305018,-2.4630989)">
      <path
         d="m 11.925598,100 c 0,0 -5.987969,-34.196804 -5.987969,-34.196804 0,0 10.232465,10.487847 10.232465,10.487847 0,0 -0.820429,-13.881591 -0.820429,-13.881591 0,0 13.956635,13.178063 13.956635,13.178063 0,0 -4.52232,-31.125746 -4.52232,-31.125746 0,0 17.621692,23.481479 17.621692,23.481479 0,0 4.862078,-21.542845 4.862078,-21.542845 0,0 9.163668,33.244369 9.163668,33.244369 0,0 3.175698,-37.036513 3.175698,-37.036513 0,0 8.662726,21.202836 8.662726,21.202836 0,0 9.432554,-22.240325 9.432554,-22.240325 0,0 -1.278751,32.709755 -1.278751,32.709755 0,0 12.467443,-14.315698 12.467443,-14.315698 0,0 -0.374865,13.485706 -0.374865,13.485706 0,0 7.307312,-5.239002 7.307312,-5.239002 0,0 -3.265402,31.788469 -3.265402,31.788469 z"
         fill="#4e9c2f"
         id="path1" />
      <path
         d="m 7.672507,100 c 0,0 -5.987969,-34.196804 -5.987969,-34.196804 0,0 10.232465,10.487847 10.232465,10.487847 L 13.5438,69.678922 12.716299,60.605929 c 0,0 12.33691,14.981586 12.33691,14.981586 0,0 -5.377139,-32.892697 -5.377139,-32.892697 l 8.012112,16.337494 10.464399,8.910936 c 0,0 5.902637,-22.124913 5.902637,-22.124913 0,0 8.123109,33.826437 8.123109,33.826437 0,0 3.175698,-37.036513 3.175698,-37.036513 l 3.914535,14.099795 4.748191,7.103041 c 0,0 9.432555,-22.240325 9.432555,-22.240325 0,0 -1.278751,32.709755 -1.278751,32.709755 0,0 10.571336,-16.124666 10.571336,-16.124666 l -0.539386,9.527764 2.060628,5.76691 c 0,0 8.58783,-9.887453 8.58783,-9.887453 0,0 -4.545921,36.43692 -4.545921,36.43692 z"
         fill="#54b42c"
         id="path2" />
      <path
         d="m 19.464572,100 c 0,0 -4.114907,-22.545514 -4.114907,-22.545514 0,0 9.280251,16.407568 9.280251,16.407568 0,0 2.02333,-4.820773 2.02333,-4.820773 l 3.711717,4.062718 2.499015,-3.099959 c 0,0 -0.591795,-15.451139 -0.591795,-15.451139 0,0 7.519805,22.918878 7.519805,22.918878 0,0 4.830127,-5.192467 4.830127,-5.192467 l 1.77497,-10.743393 3.682005,16.567562 c 0,0 2.974548,-9.300083 2.974548,-9.300083 0,0 3.212938,7.843301 3.212938,7.843301 0,0 6.479088,-25.861314 6.479088,-25.861314 0,0 0,25.263376 0,25.263376 0,0 6.972647,-8.169861 6.972647,-8.169861 L 71.435058,93.553564 79.075581,83.255993 76.935053,100"
         fill="#ffffff"
         fill-opacity="0.088"
         id="path3" />
    </g>
  </g>
</svg>
