<?xml version="1.0" encoding="UTF-8" standalone="no"?>
<svg
   viewbox="0 0 100 100"
   width="100"
   height="100"
   version="1.1"
   id="svg46"
   sodipodi:docname="stone.svg"
   inkscape:version="1.3.2 (091e20e, 2023-11-25)"
   inkscape:export-filename="../textures/game/stone.png"
   inkscape:export-xdpi="96"
   inkscape:export-ydpi="96"
   xmlns:inkscape="http://www.inkscape.org/namespaces/inkscape"
   xmlns:sodipodi="http://sodipodi.sourceforge.net/DTD/sodipodi-0.dtd"
   xmlns="http://www.w3.org/2000/svg"
   xmlns:svg="http://www.w3.org/2000/svg">
  <sodipodi:namedview
     id="namedview46"
     pagecolor="#ffffff"
     bordercolor="#000000"
     borderopacity="0.25"
     inkscape:showpageshadow="2"
     inkscape:pageopacity="0.0"
     inkscape:pagecheckerboard="0"
     inkscape:deskcolor="#d1d1d1"
     inkscape:zoom="4.3550413"
     inkscape:cx="57.404737"
     inkscape:cy="55.682595"
     inkscape:window-width="1512"
     inkscape:window-height="916"
     inkscape:window-x="0"
     inkscape:window-y="38"
     inkscape:window-maximized="1"
     inkscape:current-layer="g32"
     inkscape:export-bgcolor="#8c5535ff" />
  <defs
     id="defs1" />
  <g
     transform="matrix(1,0,0,1,-400,0)"
     id="g46">
    <g
       id="g3">
      <path
         d="M11.925598,100.000000C11.925598,100.000000 5.937629,65.803196 5.937629,65.803196 C5.937629,65.803196 16.170094,76.291043 16.170094,76.291043 C16.170094,76.291043 15.349665,62.409452 15.349665,62.409452 C15.349665,62.409452 29.306300,75.587515 29.306300,75.587515 C29.306300,75.587515 24.783980,44.461769 24.783980,44.461769 C24.783980,44.461769 42.405672,67.943248 42.405672,67.943248 C42.405672,67.943248 47.267750,46.400403 47.267750,46.400403 C47.267750,46.400403 56.431418,79.644772 56.431418,79.644772 C56.431418,79.644772 59.607116,42.608259 59.607116,42.608259 C59.607116,42.608259 68.269842,63.811095 68.269842,63.811095 C68.269842,63.811095 77.702396,41.570770 77.702396,41.570770 C77.702396,41.570770 76.423645,74.280525 76.423645,74.280525 C76.423645,74.280525 88.891088,59.964827 88.891088,59.964827 C88.891088,59.964827 88.516223,73.450533 88.516223,73.450533 C88.516223,73.450533 95.823535,68.211531 95.823535,68.211531 C95.823535,68.211531 92.558133,100.000000 92.558133,100.000000 C92.558133,100.000000 11.925598,100.000000 11.925598,100.000000 Z"
         fill="#4e9c2f"
         id="path1" />
      <path
         d="M7.672507,100.000000C7.672507,100.000000 1.684538,65.803196 1.684538,65.803196 C1.684538,65.803196 11.917003,76.291043 11.917003,76.291043 L 13.543800,69.678922 L 12.716299,60.605929 C12.716299,60.605929 25.053209,75.587515 25.053209,75.587515 C25.053209,75.587515 19.676070,42.694818 19.676070,42.694818 L 27.688182,59.032312 L 38.152581,67.943248 C38.152581,67.943248 44.055218,45.818335 44.055218,45.818335 C44.055218,45.818335 52.178327,79.644772 52.178327,79.644772 C52.178327,79.644772 55.354025,42.608259 55.354025,42.608259 L 59.268560,56.708054 L 64.016751,63.811095 C64.016751,63.811095 73.449306,41.570770 73.449306,41.570770 C73.449306,41.570770 72.170555,74.280525 72.170555,74.280525 C72.170555,74.280525 82.741891,58.155859 82.741891,58.155859 L 82.202505,67.683623 L 84.263133,73.450533 C84.263133,73.450533 92.850963,63.563080 92.850963,63.563080 C92.850963,63.563080 88.305042,100.000000 88.305042,100.000000 C88.305042,100.000000 7.672507,100.000000 7.672507,100.000000 Z"
         fill="#54b42c"
         id="path2" />
      <path
         d="M19.464572,100.000000C19.464572,100.000000 15.349665,77.454486 15.349665,77.454486 C15.349665,77.454486 24.629916,93.862054 24.629916,93.862054 C24.629916,93.862054 26.653246,89.041281 26.653246,89.041281 L 30.364963,93.103999 L 32.863978,90.004040 C32.863978,90.004040 32.272183,74.552901 32.272183,74.552901 C32.272183,74.552901 39.791988,97.471779 39.791988,97.471779 C39.791988,97.471779 44.622115,92.279312 44.622115,92.279312 L 46.397085,81.535919 L 50.079090,98.103481 C50.079090,98.103481 53.053638,88.803398 53.053638,88.803398 C53.053638,88.803398 56.266576,96.646699 56.266576,96.646699 C56.266576,96.646699 62.745664,70.785385 62.745664,70.785385 C62.745664,70.785385 62.745664,96.048761 62.745664,96.048761 C62.745664,96.048761 69.718311,87.878900 69.718311,87.878900 L 71.435058,93.553564 L 79.075581,83.255993 L 76.935053,100.000000 "
         fill="#ffffff"
         fill-opacity="0.088"
         id="path3" />
    </g>
    <g
       transform="matrix(1,0,0,1,200,0)"
       id="g18">
      <g
         id="g6">
        <path
           d="M51.305775,61.893301C51.305775,61.893301 48.545631,46.079880 48.545631,46.079880 C48.545631,46.079880 53.262268,50.929712 53.262268,50.929712 C53.262268,50.929712 52.884092,44.510532 52.884092,44.510532 C52.884092,44.510532 59.317378,50.604384 59.317378,50.604384 C59.317378,50.604384 57.232823,36.211094 57.232823,36.211094 C57.232823,36.211094 65.355511,47.069491 65.355511,47.069491 C65.355511,47.069491 67.596677,37.107564 67.596677,37.107564 C67.596677,37.107564 71.820653,52.480556 71.820653,52.480556 C71.820653,52.480556 73.284486,35.353986 73.284486,35.353986 C73.284486,35.353986 77.277554,45.158685 77.277554,45.158685 C77.277554,45.158685 81.625474,34.874226 81.625474,34.874226 C81.625474,34.874226 81.036035,50.000000 81.036035,50.000000 C81.036035,50.000000 86.782881,43.380079 86.782881,43.380079 C86.782881,43.380079 86.610088,49.616192 86.610088,49.616192 C86.610088,49.616192 89.978380,47.193552 89.978380,47.193552 C89.978380,47.193552 88.473199,61.893301 88.473199,61.893301 C88.473199,61.893301 51.305775,61.893301 51.305775,61.893301 Z"
           fill="#4e9c2f"
           id="path4" />
        <path
           d="M87.673510,61.893301C87.673510,61.893301 48.545631,61.893301 48.545631,61.893301 C48.545631,61.893301 45.785487,46.079880 45.785487,46.079880 C45.785487,46.079880 50.502124,50.929712 50.502124,50.929712 L 51.251993,47.872109 L 50.870558,43.676540 C50.870558,43.676540 56.557235,50.604384 56.557235,50.604384 C56.557235,50.604384 54.078652,35.394013 54.078652,35.394013 L 57.771821,42.948861 L 62.595367,47.069491 C62.595367,47.069491 65.316177,36.838402 65.316177,36.838402 C65.316177,36.838402 69.060510,52.480556 69.060510,52.480556 C69.060510,52.480556 70.524342,35.353986 70.524342,35.353986 L 72.328740,41.874069 L 74.517411,45.158685 C74.517411,45.158685 78.865330,34.874226 78.865330,34.874226 C78.865330,34.874226 78.275892,50.000000 78.275892,50.000000 C78.275892,50.000000 83.148731,42.543569 83.148731,42.543569 L 82.900102,46.949435 L 83.849944,49.616192 C83.849944,49.616192 87.808489,45.043997 87.808489,45.043997 L 86.782375,53.294942 L 88.535441,53.475599 L 87.673510,61.893301 Z"
           fill="#68b948"
           id="path5" />
        <path
           d="M88.473199,61.893301C88.473199,61.893301 49.345320,61.893301 49.345320,61.893301 C49.345320,61.893301 46.585176,46.079880 46.585176,46.079880 C46.585176,46.079880 51.301813,50.929712 51.301813,50.929712 L 52.051682,47.872109 L 51.670247,43.676540 C51.670247,43.676540 57.356924,50.604384 57.356924,50.604384 C57.356924,50.604384 54.878341,35.394013 54.878341,35.394013 L 58.571510,42.948861 L 63.395056,47.069491 C63.395056,47.069491 66.115866,36.838402 66.115866,36.838402 C66.115866,36.838402 69.860199,52.480556 69.860199,52.480556 C69.860199,52.480556 71.324031,35.353986 71.324031,35.353986 L 73.128429,41.874069 L 75.317099,45.158685 C75.317099,45.158685 79.665019,34.874226 79.665019,34.874226 C79.665019,34.874226 79.075581,50.000000 79.075581,50.000000 C79.075581,50.000000 83.948420,42.543569 83.948420,42.543569 L 83.699791,46.949435 L 84.649633,49.616192 C84.649633,49.616192 88.608178,45.043997 88.608178,45.043997 L 87.582064,53.294942 L 89.335130,53.475599 L 88.473199,61.893301 Z"
           fill="#54b42c"
           id="path6" />
      </g>
      <g
         id="g9">
        <path
           d="M52.558533,35.563803C52.558533,35.563803 54.940108,20.541455 54.940108,20.541455 C54.940108,20.541455 50.223472,25.391286 50.223472,25.391286 C50.223472,25.391286 50.601647,18.972106 50.601647,18.972106 C50.601647,18.972106 44.168361,25.065958 44.168361,25.065958 C44.168361,25.065958 46.252916,10.672668 46.252916,10.672668 C46.252916,10.672668 38.130228,21.531066 38.130228,21.531066 C38.130228,21.531066 35.065822,11.644708 35.065822,11.644708 C35.065822,11.644708 31.665086,26.942131 31.665086,26.942131 C31.665086,26.942131 30.201253,9.815560 30.201253,9.815560 C30.201253,9.815560 26.208185,19.620259 26.208185,19.620259 C26.208185,19.620259 21.860266,9.335801 21.860266,9.335801 C21.860266,9.335801 22.449704,24.461574 22.449704,24.461574 C22.449704,24.461574 17.351931,16.909525 17.351931,16.909525 C17.351931,16.909525 16.875651,24.077767 16.875651,24.077767 C16.875651,24.077767 12.858394,19.580097 12.858394,19.580097 C12.858394,19.580097 14.977897,35.920143 14.977897,35.920143 C14.977897,35.920143 52.558533,35.563803 52.558533,35.563803 Z"
           fill="#4e9c2f"
           id="path7" />
        <path
           d="M10.963487,36.040224C10.963487,36.040224 51.682000,35.654131 51.682000,35.654131 C51.682000,35.654131 54.442143,19.840711 54.442143,19.840711 C54.442143,19.840711 48.134873,25.076635 48.134873,25.076635 L 47.385004,22.019032 L 47.766439,17.823463 C47.766439,17.823463 42.079762,24.751307 42.079762,24.751307 C42.079762,24.751307 44.558345,9.540936 44.558345,9.540936 L 40.411750,17.114708 L 36.041630,21.216415 C36.041630,21.216415 34.285924,13.604845 34.285924,13.604845 C34.285924,13.604845 30.343207,26.784415 30.343207,26.784415 C30.343207,26.784415 28.112654,9.500909 28.112654,9.500909 L 26.308257,16.020992 L 24.119586,19.305608 C24.119586,19.305608 19.771667,9.021149 19.771667,9.021149 C19.771667,9.021149 20.246465,24.989293 20.246465,24.989293 C20.246465,24.989293 15.488266,16.690492 15.488266,16.690492 L 15.736895,21.096358 L 14.787053,23.763115 C14.787053,23.763115 10.828507,19.190920 10.828507,19.190920 L 11.854622,27.441866 L 10.101556,27.622522 L 10.963487,36.040224 Z"
           fill="#69b949"
           id="path8" />
        <path
           d="M11.243386,36.503117C11.243386,36.503117 52.951968,36.040224 52.951968,36.040224 C52.951968,36.040224 55.318676,19.750382 55.318676,19.750382 C55.318676,19.750382 49.011406,24.986307 49.011406,24.986307 L 48.261537,21.928704 L 48.642972,17.733135 C48.642972,17.733135 42.956295,24.660979 42.956295,24.660979 C42.956295,24.660979 45.434878,9.450608 45.434878,9.450608 L 41.288283,17.024380 L 36.918162,21.126086 C36.918162,21.126086 35.162457,13.514517 35.162457,13.514517 C35.162457,13.514517 31.219740,26.694087 31.219740,26.694087 C31.219740,26.694087 28.989187,9.410581 28.989187,9.410581 L 27.184790,15.930664 L 24.996119,19.215280 C24.996119,19.215280 20.648200,8.930821 20.648200,8.930821 C20.648200,8.930821 21.122998,24.898965 21.122998,24.898965 C21.122998,24.898965 16.364799,16.600164 16.364799,16.600164 L 16.613428,21.006030 L 15.663585,23.672787 C15.663585,23.672787 11.705040,19.100592 11.705040,19.100592 L 12.731155,27.351537 L 10.978089,27.532194 L 11.243386,36.503117 Z"
           fill="#54b42c"
           id="path9" />
      </g>
      <g
         transform="matrix(1,0,0,1,-31.97675613,32.546408665)"
         id="g12">
        <path
           d="M81.057954,63.709135C81.057954,63.709135 44.725201,55.876607 44.725201,55.876607 C44.725201,55.876607 45.359505,39.836647 45.359505,39.836647 C45.359505,39.836647 48.948184,45.571532 48.948184,45.571532 C48.948184,45.571532 49.931256,39.216813 49.931256,39.216813 C49.931256,39.216813 54.935873,46.529542 54.935873,46.529542 C54.935873,46.529542 55.931320,32.020191 55.931320,32.020191 C55.931320,32.020191 61.583337,44.346487 61.583337,44.346487 C61.583337,44.346487 65.873514,35.080571 65.873514,35.080571 C65.873514,35.080571 66.762983,50.998476 66.762983,50.998476 C66.762983,50.998476 71.803134,34.565001 71.803134,34.565001 C71.803134,34.565001 73.640323,44.991000 73.640323,44.991000 C73.640323,44.991000 80.057910,35.853765 80.057910,35.853765 C80.057910,35.853765 76.294158,50.515642 76.294158,50.515642 C76.294158,50.515642 83.307005,45.255454 83.307005,45.255454 C83.307005,45.255454 81.823916,51.315109 81.823916,51.315109 C81.823916,51.315109 81.118798,56.045727 81.118798,56.045727 L 84.393992,53.449139 L 81.057954,63.709135 Z"
           fill="#4e9c2f"
           id="path10" />
        <path
           d="M80.276224,63.540612C80.276224,63.540612 42.027042,55.294944 42.027042,55.294944 C42.027042,55.294944 42.661346,39.254984 42.661346,39.254984 C42.661346,39.254984 46.250025,44.989869 46.250025,44.989869 L 47.627402,42.158956 L 48.138692,37.977225 C48.138692,37.977225 52.237714,45.947879 52.237714,45.947879 C52.237714,45.947879 53.020172,30.556761 53.020172,30.556761 L 55.038321,38.720235 L 58.885178,43.764824 C58.885178,43.764824 63.700950,34.336869 63.700950,34.336869 C63.700950,34.336869 64.064825,50.416813 64.064825,50.416813 C64.064825,50.416813 69.104975,33.983338 69.104975,33.983338 L 69.494833,40.737252 L 70.942164,44.409337 C70.942164,44.409337 77.359751,35.272102 77.359751,35.272102 C77.359751,35.272102 73.596000,49.933979 73.596000,49.933979 C73.596000,49.933979 79.930750,43.671882 79.930750,43.671882 L 78.759228,47.926410 L 79.125757,50.733446 C79.125757,50.733446 83.958933,47.098138 83.958933,47.098138 L 81.217088,54.947552 L 82.892714,55.493586 L 80.276224,63.540612 Z"
           fill="#68b948"
           id="path11" />
        <path
           d="M81.057954,63.709135C81.057954,63.709135 42.808772,55.463468 42.808772,55.463468 C42.808772,55.463468 43.443076,39.423508 43.443076,39.423508 C43.443076,39.423508 47.031755,45.158393 47.031755,45.158393 L 48.409133,42.327479 L 48.920423,38.145748 C48.920423,38.145748 53.019445,46.116403 53.019445,46.116403 C53.019445,46.116403 54.029246,34.638498 54.029246,34.638498 L 55.820052,38.888758 L 59.666909,43.933348 C59.666909,43.933348 64.482680,34.505393 64.482680,34.505393 C64.482680,34.505393 64.846555,50.585337 64.846555,50.585337 C64.846555,50.585337 69.886705,34.151862 69.886705,34.151862 L 70.276563,40.905775 L 71.723894,44.577861 C71.723894,44.577861 78.141482,35.440626 78.141482,35.440626 C78.141482,35.440626 74.377730,50.102503 74.377730,50.102503 C74.377730,50.102503 80.712481,43.840405 80.712481,43.840405 L 79.540959,48.094934 L 79.907488,50.901970 C79.907488,50.901970 84.740663,47.266662 84.740663,47.266662 L 81.998818,55.116076 L 83.674444,55.662110 L 81.057954,63.709135 Z"
           fill="#54b42c"
           id="path12" />
      </g>
      <path
         d=""
         fill="#fe00e9"
         stroke="#ff0808"
         stroke-width="5"
         id="path13" />
      <path
         d=""
         fill="#fe00e9"
         stroke="#ff0808"
         stroke-width="5"
         id="path14" />
      <path
         d=""
         fill="#fe00e9"
         stroke="#ff0808"
         stroke-width="5"
         id="path15" />
      <path
         d="M0.000000,49.888763C0.000000,49.888763 19.931819,62.331807 31.094035,52.239374 C41.556556,42.779579 30.857995,33.832888 43.000000,23.000000 C54.466086,12.770155 50.000000,-0.000000 50.000000,-0.000000 "
         fill="none"
         stroke="#ffffff"
         stroke-opacity="0.033"
         stroke-width="10"
         stroke-linecap="square"
         id="path16" />
      <path
         d="M50.000000,100.000000C50.000000,100.000000 47.741204,91.331324 59.555565,82.010747 C67.960153,75.380205 82.698723,82.927889 87.565276,74.816638 C89.685095,71.283463 83.058763,57.799431 85.467808,52.847997 C88.289830,47.047752 100.000000,50.000000 100.000000,50.000000 "
         fill="none"
         stroke="#ffffff"
         stroke-opacity="0.033"
         stroke-width="10"
         stroke-linecap="square"
         id="path17" />
      <path
         d=""
         fill="#fe00e9"
         stroke="#ff0808"
         stroke-width="5"
         id="path18" />
    </g>
    <g
       transform="matrix(1,0,0,1,400,0)"
       id="g32">
      <path
         d="M -0.997503,-2.632929 31.450413,22.687484 22.603745,39.799748 33.426095,45.056624 39.477309,67.20454 19.239903,91.664199 -0.997503,86.933245 Z"
         fill="#7e4e33"
         id="path19"
         sodipodi:nodetypes="cccccccc"
         style="fill:#595959;fill-opacity:1" />
      <path
         d="M-4.919239,2.817818C-4.919239,2.817818 22.856960,27.364198 22.856960,27.364198 C22.856960,27.364198 15.947168,40.758191 15.947168,40.758191 C15.947168,40.758191 25.569618,45.875482 25.569618,45.875482 C25.569618,45.875482 30.685342,64.023093 30.685342,64.023093 C30.685342,64.023093 12.883051,85.459439 12.883051,85.459439 C12.883051,85.459439 -4.919239,81.313250 -4.919239,81.313250 C-4.919239,81.313250 -4.919239,2.817818 -4.919239,2.817818 Z"
         fill="#875436"
         id="path20"
         style="fill:#5f5f5f;fill-opacity:1" />
      <path
         d="M-13.827848,4.896096C-13.827848,4.896096 5.428005,28.118901 5.428005,28.118901 C5.428005,28.118901 -0.615242,40.491743 -0.615242,40.491743 C-0.615242,40.491743 12.883051,44.138629 12.883051,44.138629 C12.883051,44.138629 17.364871,60.678268 17.364871,60.678268 C17.364871,60.678268 1.768512,80.215243 1.768512,80.215243 C1.768512,80.215243 -13.827848,76.436428 -13.827848,76.436428 C-13.827848,76.436428 -13.827848,4.896096 -13.827848,4.896096 Z"
         fill="#8c593d"
         id="path21"
         style="fill:#656565;fill-opacity:1" />
      <path
         d=""
         fill="#fe00e9"
         stroke="#ff0808"
         stroke-width="5"
         id="path22" />
      <g
         transform="matrix(1,0,0,1,-3.470429164,0.721421037)"
         id="g26">
        <path
           d="M 5.847004,-0.721421 36.755396,25.045526 47.08773,30.861212 63.178138,18.870749 58.908486,-0.72142104 Z"
           fill="#805036"
           id="path23"
           sodipodi:nodetypes="cccccc"
           style="fill:#5b5b5b;fill-opacity:1" />
        <path
           d="m 26.074174,-0.721421 20.079398,26.573018 2.733779,3.66855 14.290787,-10.649398 -4.269652,-19.59217004 z"
           fill="#7e4e33"
           id="path24"
           sodipodi:nodetypes="cccccc"
           style="fill:#595959;fill-opacity:1" />
        <path
           d="M14.287649,0.000000C14.287649,0.000000 37.478949,20.968974 37.478949,20.968974 C37.478949,20.968974 46.153572,25.851597 46.153572,25.851597 C46.153572,25.851597 59.662450,15.784873 59.662450,15.784873 C59.662450,15.784873 55.502712,0.000000 55.502712,0.000000 C55.502712,0.000000 14.287649,0.000000 14.287649,0.000000 Z"
           fill="#875436"
           id="path25"
           style="fill:#5f5f5f;fill-opacity:1" />
        <path
           d="M53.626766,-0.000000C53.626766,-0.000000 17.364871,-0.000000 17.364871,-0.000000 C17.364871,-0.000000 37.155092,15.688465 37.155092,15.688465 C37.155092,15.688465 44.678160,17.102439 44.678160,17.102439 C44.678160,17.102439 53.626766,-0.000000 53.626766,-0.000000 Z"
           fill="#8c593d"
           id="path26"
           style="fill:#656565;fill-opacity:1" />
      </g>
      <path
         d=""
         fill="#fe00e9"
         stroke="#ff0808"
         stroke-width="5"
         id="path27" />
      <g
         transform="matrix(1.054149011,0,0,1.054149011,-4.148136563,-1.971320413)"
         id="g31">
        <path
           d="M33.385975,23.765477C33.385975,23.765477 25.377704,39.625393 25.377704,39.625393 C25.377704,39.625393 40.691248,47.161065 40.691248,47.161065 C40.691248,47.161065 45.364727,31.830371 45.364727,31.830371 C45.364727,31.830371 33.385975,23.765477 33.385975,23.765477 Z"
           fill="#794c32"
           id="path28"
           style="fill:#565656;fill-opacity:1" />
        <path
           d="m 33.385975,23.765477 -2.291899,4.538972 -5.716372,11.320944 10.106487,-2.854553 9.880536,-4.940469 z"
           fill="#87563b"
           id="path29"
           sodipodi:nodetypes="cccccc"
           style="fill:#616161;fill-opacity:1" />
        <path
           d="M34.305863,28.540544C34.305863,28.540544 29.426633,38.487629 29.426633,38.487629 C29.426633,38.487629 38.954016,43.180851 38.954016,43.180851 C38.954016,43.180851 41.861640,33.632884 41.861640,33.632884 C41.861640,33.632884 34.305863,28.540544 34.305863,28.540544 Z"
           fill="#875436"
           id="path30"
           style="fill:#5f5f5f;fill-opacity:1" />
        <path
           d="M35.898447,30.119681C35.898447,30.119681 34.305863,28.540544 34.305863,28.540544 C34.305863,28.540544 29.426633,38.487629 29.426633,38.487629 C29.426633,38.487629 33.622685,40.554619 33.622685,40.554619 L 37.850730,36.674949 L 35.898447,30.119681 Z"
           fill="#8c593d"
           id="path31"
           style="fill:#656565;fill-opacity:1" />
      </g>
      <path
         style="fill:#595959;fill-opacity:1"
         d="M 55.438057,0 59.707709,19.59217 84.695701,47.74347 100,39.799748 V 0 Z"
         id="path46" />
      <path
         style="fill:#5f5f5f;fill-opacity:1;stroke-width:0.932053"
         d="M 62.28073,0 66.258824,18.267585 86.76457,43.547731 100,37.108971 V 0 Z"
         id="path46-8"
         sodipodi:nodetypes="cccccc" />
      <path
         style="fill:#656565;fill-opacity:1;stroke-width:0.677656"
         d="M 72.507246,0 75.406793,13.248416 90.18111,28.114666 100,26.912975 V 0 Z"
         id="path46-8-2"
         sodipodi:nodetypes="cccccc" />
      <path
         style="fill:#7f7f7f;fill-opacity:0.16156"
         d="m 55.438057,0 4.269652,19.59217 6.551115,-1.324585 9.147969,-5.019169 L 72.507246,0 H 55.438057"
         id="path47"
         sodipodi:nodetypes="cccccc" />
      <path
         style="fill:#4a4a4a;fill-opacity:0.16155988"
         d="M 84.695701,47.74347 86.76457,43.547731 90.18111,28.114666 100,18.554485 v 21.245263"
         id="path48" />
      <path
         style="fill:#848484;fill-opacity:1"
         d="m 50.156337,26.573018 9.551372,-6.980848 7.836108,8.828106 z"
         id="path49"
         sodipodi:nodetypes="cccc" />
      <path
         style="fill:#989898;fill-opacity:0.270195;stroke-width:0.500002"
         d="m 55.540489,25.370217 3.733541,-3.596352 3.873623,4.464716 z"
         id="path49-5"
         sodipodi:nodetypes="cccc" />
      <path
         style="fill:#ffffff;fill-opacity:0.05292479"
         d="m 59.707709,19.59217 -0.433679,2.181695 -3.733541,3.596352 -5.384152,1.202801 9.551372,-6.980848"
         id="path50" />
      <path
         style="fill:#595959;fill-opacity:1"
         d="M -0.997503,86.933245 19.239903,91.664199 32.670584,75.431394 49.342013,82.767248 62.28073,72.808869 73.956756,75.432612 81.140365,100 H 0 L -0.997503,86.933245"
         id="path51" />
      <path
         style="fill:#5f5f5f;fill-opacity:1;stroke-width:0.922809"
         d="M 0.38550425,89.35418 19.94141,93.523351 32.91981,79.218132 49.029824,85.68288 61.532826,76.907022 72.815659,79.219206 79.757358,100.86931 H 1.3494161 L 0.38550425,89.35418"
         id="path51-9" />
      <path
         style="fill:#656565;fill-opacity:1;stroke-width:0.845576"
         d="m 2.0612168,98.486812 18.4374062,3.712868 11.777549,-10.119256 15.647155,3.988499 11.787893,-6.177679 11.620124,5.727539 5.562057,13.122857 H 2.9699978 L 2.0612168,98.486812"
         id="path51-9-2"
         sodipodi:nodetypes="ccccccccc" />
      <path
         style="fill:#565656;fill-opacity:1"
         d="m 39.477309,67.20454 1.528989,11.894781 -8.335714,-3.667927 6.806725,-8.226854"
         id="path52" />
      <path
         style="fill:#6e6e6e;fill-opacity:1"
         d="m 38.248523,71.847491 -1.919157,2.341747 2.46217,1.866609 z"
         id="path53"
         sodipodi:nodetypes="cccc" />
      <path
         style="fill:#606060;fill-opacity:1"
         d="m 32.670584,75.431394 3.658782,-1.242156 1.919157,-2.341747 1.228786,-4.642951 z"
         id="path54" />
      <path
         style="fill:#595959;fill-opacity:1"
         d="M 50.156337,26.573018 67.543817,28.420276 76.93296,38.99802 63.875099,54.171202 37.560451,60.142831 33.426095,45.056624 38.746502,47.74347 43.617301,31.582633 Z"
         id="path55" />
      <path
         style="fill:#5f5f5f;fill-opacity:1"
         d="m 51.223452,30.241568 -5.347503,5.58963 -3.283555,15.579885 3.095923,2.439212 15.57343,-5.347503 7.22382,-11.820796 -6.204837,-5.099363 z"
         id="path56" />
      <path
         style="fill:#656565;fill-opacity:1;stroke-width:1.25767"
         d="m 54.917536,34.851655 -1.512493,9.896186 7.692899,-5.054385"
         id="path57" />
      <path
         style="fill:#656565;fill-opacity:0.18662953"
         d="m 38.746502,47.74347 -3.253229,4.856257 3.298263,5.196808 3.800858,-6.385452 3.283555,-15.579885 5.347503,-5.58963 h -5.80653 l -1.799621,1.341065 -4.870799,16.160837"
         id="path58" />
      <path
         style="fill:#343434;fill-opacity:0.08913652"
         d="m 15.947168,40.758191 6.656577,-0.958443 10.82235,5.256876 6.051214,22.147916 -8.791967,-3.181447 -5.115724,-18.147611 z"
         id="path59" />
      <path
         style="fill:#343434;fill-opacity:0.08913652"
         d="m 67.543817,28.420276 -5.263087,3.162357 6.204837,5.099363 -7.22382,11.820796 2.613352,5.66841 L 76.93296,38.99802 Z"
         id="path60" />
      <path
         style="fill:#595959;fill-opacity:1"
         d="M 81.140365,100 H 100 V 39.799748 L 84.695701,47.74347 74.246175,65.348906 73.956756,75.432612 81.140365,100"
         id="path61" />
      <path
         style="fill:#5f5f5f;fill-opacity:1;stroke-width:0.910975"
         d="M 86.354114,102.909 H 102.00525 V 42.70874 L 89.304598,50.652462 80.632801,68.257898 80.392619,78.341604 86.354114,102.909"
         id="path61-5" />
      <path
         style="fill:#656565;fill-opacity:1;stroke-width:0.910975"
         d="m 92.93275,104.0518 h 15.65113 l 0.0883,-52.784318 -12.700651,7.943722 -8.760082,10.189493 -0.240182,10.083706 5.961495,24.567397"
         id="path61-5-6"
         sodipodi:nodetypes="ccccccc" />
      <path
         style="fill:#595959;fill-opacity:1"
         d="M 76.93296,38.99802 84.695701,47.74347 74.246175,65.348906 73.956756,75.432612 62.28073,72.808869 63.875099,54.171202 76.93296,38.99802"
         id="path62" />
      <path
         style="fill:#5f5f5f;fill-opacity:1;stroke-width:0.837971"
         d="m 78.211498,44.747841 6.535448,7.294236 -8.797451,14.684002 -0.243662,8.410423 -9.830041,-2.188361 1.342299,-15.544945 10.993407,-12.655355"
         id="path62-3" />
      <path
         style="fill:#656565;fill-opacity:1"
         d="m 77.719029,51.633569 -6.8969,7.687531 -1.089571,11.137839 4.368907,-0.06818 0.320415,-8.10395 z"
         id="path63"
         sodipodi:nodetypes="cccccc" />
      <path
         style="fill:#656565;fill-opacity:0.68802226"
         d="M 63.875099,54.171202 67.218091,57.403196 78.211498,44.747841 76.93296,38.99802 Z"
         id="path64" />
      <path
         style="fill:#656565;fill-opacity:0.2924791"
         d="m 65.875792,72.948141 -3.595062,-0.139272 1.594369,-18.637667 3.342992,3.231994 -1.342299,15.544945"
         id="path65" />
      <path
         style="fill:#555555;fill-opacity:1"
         d="m 37.560451,60.142831 1.916858,7.061709 1.528989,11.894781 8.335715,3.667927 12.938717,-9.958379 1.594369,-18.637667 -26.314648,5.971629"
         id="path66" />
      <path
         style="fill:#5f5f5f;fill-opacity:1;stroke-width:0.676036"
         d="m 42.279488,63.618543 1.303023,4.747744 1.039363,7.997126 5.666375,2.466029 8.795361,-6.695239 1.083806,-12.53052 -17.887928,4.01486"
         id="path66-6" />
      <path
         style="fill:#5f5f5f;fill-opacity:0.45961004"
         d="m 63.875099,54.171202 -3.707683,5.432481 -17.887928,4.01486 1.303023,4.747744 1.039363,7.997126 -3.615576,2.735908 -1.528989,-11.894781 -1.916858,-7.061709 z"
         id="path67" />
      <path
         style="fill:#5c5c5c;fill-opacity:1"
         d="m 27.712239,50 -6.380663,4.991141 6.795904,-0.04185 z"
         id="path69" />
      <path
         style="fill:#5d5d5d;fill-opacity:1"
         d="m 75.11657,80.166358 -6.380663,4.991141 6.795904,-0.04185 z"
         id="path69-7" />
      <path
         style="fill:#5d5d5d;fill-opacity:1"
         d="m 82.344275,40.661358 3.03125,-7.512381 -5.86496,3.433411 z"
         id="path69-7-4" />
      <path
         style="fill:#5d5d5d;fill-opacity:1"
         d="m 25.955244,83.547797 8.001291,1.266364 -4.66306,-4.943878 z"
         id="path69-7-3" />
      <path
         style="fill:#5d5d5d;fill-opacity:1"
         d="m 10.81722,15.120784 0.54693,8.082402 3.781536,-5.646773 z"
         id="path69-1" />
      <rect
         style="fill:#8b8b8b;stroke-width:11.499;stroke-opacity:0.12766;paint-order:stroke fill markers;fill-opacity:0.3449848"
         id="rect1"
         width="106.08395"
         height="102.63967"
         x="-3.2146652"
         y="-1.6073327" />
    </g>
    <g
       transform="matrix(1,0,0,1,400,200)"
       id="g45">
      <path
         d="M-0.997503,-2.632929C-0.997503,-2.632929 31.450413,22.687484 31.450413,22.687484 C31.450413,22.687484 22.603745,40.207797 22.603745,40.207797 C22.603745,40.207797 33.872451,44.011152 33.872451,44.011152 C33.872451,44.011152 39.477309,67.204540 39.477309,67.204540 C39.477309,67.204540 19.239903,91.664199 19.239903,91.664199 C19.239903,91.664199 -0.997503,86.933245 -0.997503,86.933245 C-0.997503,86.933245 -0.997503,-2.632929 -0.997503,-2.632929 Z"
         fill="#7e4e33"
         id="path32" />
      <path
         d="M-4.919239,2.817818C-4.919239,2.817818 22.856960,27.364198 22.856960,27.364198 C22.856960,27.364198 15.947168,40.758191 15.947168,40.758191 C15.947168,40.758191 25.569618,45.875482 25.569618,45.875482 C25.569618,45.875482 30.685342,64.023093 30.685342,64.023093 C30.685342,64.023093 12.883051,85.459439 12.883051,85.459439 C12.883051,85.459439 -4.919239,81.313250 -4.919239,81.313250 C-4.919239,81.313250 -4.919239,2.817818 -4.919239,2.817818 Z"
         fill="#875436"
         id="path33" />
      <path
         d="M-13.827848,4.896096C-13.827848,4.896096 5.428005,28.118901 5.428005,28.118901 C5.428005,28.118901 -0.615242,40.491743 -0.615242,40.491743 C-0.615242,40.491743 12.883051,44.138629 12.883051,44.138629 C12.883051,44.138629 17.364871,60.678268 17.364871,60.678268 C17.364871,60.678268 1.768512,80.215243 1.768512,80.215243 C1.768512,80.215243 -13.827848,76.436428 -13.827848,76.436428 C-13.827848,76.436428 -13.827848,4.896096 -13.827848,4.896096 Z"
         fill="#8c593d"
         id="path34" />
      <path
         d=""
         fill="#fe00e9"
         stroke="#ff0808"
         stroke-width="5"
         id="path35" />
      <g
         transform="matrix(1,0,0,1,-3.470429164,0.721421037)"
         id="g39">
        <path
           d="M5.847004,-0.721421C5.847004,-0.721421 36.755396,25.045526 36.755396,25.045526 C36.755396,25.045526 47.087730,30.861212 47.087730,30.861212 C47.087730,30.861212 63.178138,18.870749 63.178138,18.870749 C63.178138,18.870749 58.223479,0.069405 58.223479,0.069405 C58.223479,0.069405 5.847004,-0.721421 5.847004,-0.721421 Z"
           fill="#805036"
           id="path36" />
        <path
           d="M27.500486,-0.394478C27.500486,-0.394478 46.153572,25.851597 46.153572,25.851597 C46.153572,25.851597 48.887351,29.520147 48.887351,29.520147 C48.887351,29.520147 63.178138,18.870749 63.178138,18.870749 C63.178138,18.870749 58.223479,0.069405 58.223479,0.069405 C58.223479,0.069405 27.500486,-0.394478 27.500486,-0.394478 Z"
           fill="#7e4e33"
           id="path37" />
        <path
           d="M14.287649,0.000000C14.287649,0.000000 37.478949,20.968974 37.478949,20.968974 C37.478949,20.968974 46.153572,25.851597 46.153572,25.851597 C46.153572,25.851597 59.662450,15.784873 59.662450,15.784873 C59.662450,15.784873 55.502712,0.000000 55.502712,0.000000 C55.502712,0.000000 14.287649,0.000000 14.287649,0.000000 Z"
           fill="#875436"
           id="path38" />
        <path
           d="M53.626766,0.000000C53.626766,0.000000 17.364871,0.000000 17.364871,0.000000 C17.364871,0.000000 37.155092,15.688465 37.155092,15.688465 C37.155092,15.688465 44.678160,17.102439 44.678160,17.102439 C44.678160,17.102439 53.626766,0.000000 53.626766,0.000000 Z"
           fill="#8c593d"
           id="path39" />
      </g>
      <path
         d=""
         fill="#fe00e9"
         stroke="#ff0808"
         stroke-width="5"
         id="path40" />
      <g
         transform="matrix(1.054149011,0,0,1.054149011,-4.148136563,-1.971320413)"
         id="g44">
        <path
           d="M33.385975,23.765477C33.385975,23.765477 25.377704,39.625393 25.377704,39.625393 C25.377704,39.625393 40.691248,47.161065 40.691248,47.161065 C40.691248,47.161065 45.364727,31.830371 45.364727,31.830371 C45.364727,31.830371 33.385975,23.765477 33.385975,23.765477 Z"
           fill="#794c32"
           id="path41" />
        <path
           d="M33.385975,23.765477C33.385975,23.765477 25.377704,39.625393 25.377704,39.625393 C25.377704,39.625393 35.644136,36.362092 35.644136,36.362092 C35.644136,36.362092 45.364727,31.830371 45.364727,31.830371 C45.364727,31.830371 33.385975,23.765477 33.385975,23.765477 Z"
           fill="#87563b"
           id="path42" />
        <path
           d="M34.305863,28.540544C34.305863,28.540544 29.426633,38.487629 29.426633,38.487629 C29.426633,38.487629 38.954016,43.180851 38.954016,43.180851 C38.954016,43.180851 41.861640,33.632884 41.861640,33.632884 C41.861640,33.632884 34.305863,28.540544 34.305863,28.540544 Z"
           fill="#875436"
           id="path43" />
        <path
           d="M35.898447,30.119681C35.898447,30.119681 34.305863,28.540544 34.305863,28.540544 C34.305863,28.540544 29.426633,38.487629 29.426633,38.487629 C29.426633,38.487629 33.622685,40.554619 33.622685,40.554619 L 37.850730,36.674949 L 35.898447,30.119681 Z"
           fill="#8c593d"
           id="path44" />
      </g>
    </g>
  </g>
</svg>
