<?xml version="1.0" encoding="UTF-8" standalone="no"?>
<svg
   viewbox="0 0 100 100"
   width="100"
   height="100"
   version="1.1"
   id="svg46"
   sodipodi:docname="wood_top.svg"
   inkscape:version="1.3.2 (091e20e, 2023-11-25)"
   inkscape:export-filename="wood_top.png"
   inkscape:export-xdpi="192"
   inkscape:export-ydpi="192"
   xmlns:inkscape="http://www.inkscape.org/namespaces/inkscape"
   xmlns:sodipodi="http://sodipodi.sourceforge.net/DTD/sodipodi-0.dtd"
   xmlns="http://www.w3.org/2000/svg"
   xmlns:svg="http://www.w3.org/2000/svg">
  <sodipodi:namedview
     id="namedview46"
     pagecolor="#ffffff"
     bordercolor="#000000"
     borderopacity="0.25"
     inkscape:showpageshadow="2"
     inkscape:pageopacity="0.0"
     inkscape:pagecheckerboard="0"
     inkscape:deskcolor="#d1d1d1"
     inkscape:zoom="5.4138913"
     inkscape:cx="55.967137"
     inkscape:cy="53.288842"
     inkscape:window-width="1512"
     inkscape:window-height="916"
     inkscape:window-x="0"
     inkscape:window-y="38"
     inkscape:window-maximized="1"
     inkscape:current-layer="g32"
     inkscape:export-bgcolor="#8c5535ff"
     showguides="false" />
  <defs
     id="defs1" />
  <g
     transform="matrix(1,0,0,1,-400,0)"
     id="g46">
    <g
       transform="matrix(1,0,0,1,400,0)"
       id="g32">
      <rect
         style="fill:#522c14;fill-opacity:0.80000001;stroke-width:7.55906"
         id="rect1"
         width="100"
         height="100"
         x="0"
         y="0" />
      <path
         style="fill:#5c3c2d;fill-opacity:1;stroke-width:7.55906"
         d="M 9.2269149,0 19.228445,50 6.49462,89.599818 10.199005,100 h 11.34468 L 22.701306,50 26.174167,20.142595 33.119889,0 H 9.2269149"
         id="path21-6" />
      <path
         style="fill:#7c523b;fill-opacity:1;stroke-width:7.55906"
         d="M 39.668165,0 31.435814,40.650659 31.741458,77.561448 30.669006,100 h 12.47202 L 48.704703,70.909421 53.118943,26.438211 46.613887,0 Z"
         id="path45-5" />
      <path
         style="fill:#6f4b35;fill-opacity:1;stroke-width:7.55906"
         d="M 36.382656,0 28.150305,40.650659 28.455949,77.561448 27.383497,100 h 12.47202 L 45.419194,70.909421 49.833434,26.438211 43.328378,0 Z"
         id="path45" />
      <path
         style="fill:#66391a;fill-opacity:0.27811551;stroke-width:7.55906"
         d="M 45.631391,0 55.105212,26.538399 51.217421,68.796997 44.287011,99.392222 77.496667,100 79.615198,72.008651 83.333955,22.819643 93.950457,0"
         id="path29" />
      <path
         d=""
         fill="#fe00e9"
         stroke="#ff0808"
         stroke-width="5"
         id="path22" />
      <path
         d=""
         fill="#fe00e9"
         stroke="#ff0808"
         stroke-width="5"
         id="path27" />
      <path
         style="fill:#664a34;fill-opacity:0.83529413;stroke-width:7.55906"
         d="M 87.900915,0 90.716962,34.597156 87.09633,66.780558 86.492891,100 H 100 V 0 Z"
         id="path19" />
      <path
         style="fill:#6d4a36;fill-opacity:1;stroke-width:7.55906"
         d="M 6.4366802,0 16.43821,50 3.7043853,89.599818 7.4087705,100 H 18.75345 L 19.911071,50 23.383932,20.142595 30.329654,0 H 6.4366802"
         id="path21" />
      <path
         style="fill:#502d16;fill-opacity:0.26899695;stroke-width:7.55906"
         d="M 0,0 H 6.4366802 L 2.8710904,51.679627 7.4087705,100 H 0 V 0"
         id="path20" />
      <path
         style="fill:#543b29;fill-opacity:0.31914893;stroke-width:6.7164"
         d="m 62.511502,0 3.107296,11.113156 1.279475,9.724011 L 69.457224,0"
         id="path23" />
      <path
         style="fill:#543b29;fill-opacity:0.31914893;stroke-width:8.78747"
         d="M 41.31064,0 38.203344,19.023547 36.923869,35.66915 34.364918,0"
         id="path23-5" />
      <path
         style="fill:#543b29;fill-opacity:0.31914893;stroke-width:7.55906"
         d="m 18.383167,0 h -5.901603 l 3.221049,13.286826 z"
         id="path24" />
      <path
         style="fill:#402412;fill-opacity:0.173252;stroke-width:7.55906"
         d="m 18.75345,100 h 6.612309 L 23.151288,91.39726 21.434911,80.568048 18.75345,100"
         id="path25" />
      <path
         style="fill:#664a34;fill-opacity:0.83529413;stroke-width:7.55906"
         d="m 80.694942,100 h -6.39655 l 2.583222,-9.464211 1.968169,-9.225794 z"
         id="path26" />
      <path
         style="fill:#634837;fill-opacity:1;stroke-width:12.712"
         d="M 45.631391,100 H 50 L 47.132424,72.522266 Z"
         id="path28" />
      <path
         style="fill:#5d4431;fill-opacity:0.83529413;stroke-width:7.55906"
         d="M 88.642206,11.409822 83.333955,22.819643 78.849783,81.309995 80.694942,100 h 5.797949 L 81.387065,81.309995 86.492891,23.201546 88.642206,11.409822"
         id="path30" />
      <rect
         style="fill:#724727;fill-opacity:0.582067;stroke-width:7.55906"
         id="rect46"
         width="100"
         height="100"
         x="0.1473687"
         y="0.56123942" />
      <path
         style="fill:#8f4d1c;fill-opacity:0.37386;stroke-width:8.09511"
         d="M -4.2298121,18.64771 V 30.113373 L 9.1368772,38.521527 12.296934,18.64771 Z"
         id="path1" />
      <path
         style="fill:#8f4d1c;fill-opacity:0.37386;stroke-width:8.83194"
         d="M 107.57453,27.917042 94.263135,25.386649 80.99006,36.568137 l 22.24293,7.468155 z"
         id="path1-0" />
      <path
         style="fill:#5b3212;fill-opacity:0.37386;stroke-width:8.83194"
         d="M 109.76935,56.16806 96.457945,62.438388 83.184871,73.619876 105.4278,81.088032 Z"
         id="path1-0-3"
         sodipodi:nodetypes="ccccc" />
      <path
         style="fill:#5b3212;fill-opacity:0.37386;stroke-width:8.83194"
         d="M 14.152595,50.058587 0.84119889,56.328915 -12.431875,67.510402 9.8110533,74.978558 Z"
         id="path1-0-3-9"
         sodipodi:nodetypes="ccccc" />
      <path
         style="fill:#c3916a;fill-opacity:1;stroke:#000000;stroke-width:6.81782;stroke-dasharray:none;stroke-opacity:0.12766;paint-order:stroke fill markers"
         d="M 14.49522,8.2732433 5.459827,16.971748 9.4706888,48.603665 6.49462,65.8249 V 92.644148 L 35.987587,92.393267 63.034066,96.58497 84.134183,95.185789 93.950457,88.245269 92.846934,50.517795 90.393832,30.62727 94.841616,12.819435 87.434623,4.7701293 64.927165,8.6395491 28.878758,5.4796715 Z"
         id="path2"
         sodipodi:nodetypes="cccccccccccccccc" />
      <path
         style="fill:#bf865a;fill-opacity:1;stroke:none;stroke-width:10.7091;stroke-dasharray:none;stroke-opacity:0.12766;paint-order:stroke fill markers"
         d="m 43.927536,43.586475 -5.911787,6.65076 4.98807,6.466017 -1.108459,-6.65076 z"
         id="path3" />
      <path
         style="fill:#bf865a;fill-opacity:1;stroke:none;stroke-width:10.7091;stroke-dasharray:none;stroke-opacity:0.12766;paint-order:stroke fill markers"
         d="m 47.353091,39.437555 8.86768,4.803326 2.21692,9.237167 1.293203,-12.19306 z"
         id="path4" />
      <path
         style="fill:#bf865a;fill-opacity:1;stroke:none;stroke-width:10.7091;stroke-dasharray:none;stroke-opacity:0.12766;paint-order:stroke fill markers"
         d="m 46.614118,64.932134 14.779466,2.586406 6.65076,-11.269342 -7.574477,7.574476 z"
         id="path5" />
      <path
         style="fill:#bf865a;fill-opacity:1;stroke:none;stroke-width:10.7091;stroke-dasharray:none;stroke-opacity:0.12766;paint-order:stroke fill markers"
         d="m 34.421058,37.220634 -2.401663,12.747291 5.727043,12.377802 7.943964,5.357557 -9.791397,-4.249097 -8.498193,-13.486262 z"
         id="path6" />
      <path
         style="fill:#bf865a;fill-opacity:1;stroke:none;stroke-width:10.7091;stroke-dasharray:none;stroke-opacity:0.12766;paint-order:stroke fill markers"
         d="m 29.802475,32.047821 16.257412,-2.401663 9.976141,1.66269 8.128707,7.389733 -5.911788,-10.53037 -12.747289,-0.923716 -16.6269,4.803326"
         id="path7" />
      <path
         style="fill:#bf865a;fill-opacity:1;stroke:none;stroke-width:10.7091;stroke-dasharray:none;stroke-opacity:0.12766;paint-order:stroke fill markers"
         d="m 18.525057,64.069881 9.767281,6.511521 11.598645,1.017425 -12.61607,2.645304 z"
         id="path10" />
      <path
         style="fill:#bf865a;fill-opacity:1;stroke:none;stroke-width:10.7091;stroke-dasharray:none;stroke-opacity:0.12766;paint-order:stroke fill markers"
         d="m 66.751005,76.889437 11.191676,-7.528945 4.47667,-6.511521 -1.831364,9.360311 -12.819556,6.91849 -16.278802,-2.44182"
         id="path11"
         sodipodi:nodetypes="cccccc" />
      <path
         style="fill:#bf865a;fill-opacity:1;stroke:none;stroke-width:10.7091;stroke-dasharray:none;stroke-opacity:0.12766;paint-order:stroke fill markers"
         d="m 59.023491,14.075039 12.581782,4.908448 11.046839,7.442628 4.782511,9.530418 -3.051151,-14.331134 -12.27837,-5.247524 -14.205938,-2.820446 z"
         id="path12" />
      <path
         style="fill:#bf865a;fill-opacity:1;stroke:none;stroke-width:10.7091;stroke-dasharray:none;stroke-opacity:0.12766;paint-order:stroke fill markers"
         d="m 11.199597,27.849549 7.121975,-11.598646 15.464861,-4.47667 -17.499711,0.203484 z"
         id="path13" />
      <path
         style="fill:#c79773;fill-opacity:1;stroke:none;stroke-width:13.0094;stroke-dasharray:none;stroke-opacity:0.12766;paint-order:stroke fill markers"
         d="m 42.310393,52.634156 5.528097,9.289261 9.319941,-3.399237 -8.108073,-1.160736 z"
         id="path3-7" />
      <path
         style="fill:#c79773;fill-opacity:1;stroke:none;stroke-width:13.0094;stroke-dasharray:none;stroke-opacity:0.12766;paint-order:stroke fill markers"
         d="M 70.242084,60.559425 78.668331,44.397259 68.064099,32.555012 74.050691,44.108921 Z"
         id="path5-3" />
      <path
         style="fill:#c79773;fill-opacity:1;stroke:none;stroke-width:13.0094;stroke-dasharray:none;stroke-opacity:0.12766;paint-order:stroke fill markers"
         d="m 17.279383,58.882994 3.19387,-19.706575 5.591458,-10.940015 11.543683,-6.696213 -14.365399,2.975111 -5.754236,14.42022 -0.548848,21.017016"
         id="path7-5" />
      <path
         style="fill:#c79773;fill-opacity:1;stroke:none;stroke-width:13.0094;stroke-dasharray:none;stroke-opacity:0.12766;paint-order:stroke fill markers"
         d="m 91.509859,61.272629 -9.677734,15.0647 -9.447041,7.855046 -13.247717,1.610551 12.020869,2.442343 3.412815,-0.660791 9.909683,-9.850688 6.798955,-14.822116"
         id="path7-5-8"
         sodipodi:nodetypes="cccccccc" />
      <path
         style="fill:#c79773;fill-opacity:1;stroke:none;stroke-width:13.0094;stroke-dasharray:none;stroke-opacity:0.12766;paint-order:stroke fill markers"
         d="m 37.561816,18.633765 13.112625,-1.253615 17.717196,7.977978 6.733427,9.200914 -5.453667,-13.974797 -17.83253,-6.13092 z"
         id="path8-5" />
      <path
         style="fill:#c79773;fill-opacity:1;stroke:none;stroke-width:13.0094;stroke-dasharray:none;stroke-opacity:0.12766;paint-order:stroke fill markers"
         d="M 35.243121,81.965911 28.219317,79.719935 17.773676,70.958276 12.720451,56.646511 13.835906,74.376637 26.540327,82.558506 Z"
         id="path9-8"
         sodipodi:nodetypes="ccccccc" />
    </g>
  </g>
</svg>
